<svg width="415" height="179" viewBox="0 0 415 179" fill="none" xmlns="http://www.w3.org/2000/svg">
<mask id="path-1-outside-1_47_77" maskUnits="userSpaceOnUse" x="1" y="48" width="339" height="96" fill="black">
<rect fill="white" x="1" y="48" width="339" height="96"/>
<path d="M33.408 141H32.896C21.2053 140.829 13.2267 137.672 8.96 131.528C4.69333 125.299 2.56 117.491 2.56 108.104C2.56 104.435 2.688 101.192 2.944 98.376C3.28533 95.56 3.75467 92.4027 4.352 88.904C5.46133 82.5893 6.016 76.7867 6.016 71.496C6.016 64.84 4.94933 58.1413 2.816 51.4H19.2L16.384 65.864C14.1653 76.9573 12.4587 85.832 11.264 92.488C10.1547 99.0587 9.6 104.179 9.6 107.848C9.6 121.928 17.536 129.011 33.408 129.096C49.1947 129.011 57.088 121.928 57.088 107.848C57.088 104.179 56.4907 99.0587 55.296 92.488C54.1867 85.832 52.5227 76.9573 50.304 65.864L47.488 51.4H63.872C61.7387 58.1413 60.672 64.84 60.672 71.496C60.672 76.7867 61.2267 82.5893 62.336 88.904C62.9333 92.4027 63.36 95.56 63.616 98.376C63.9573 101.192 64.128 104.435 64.128 108.104C64.128 117.491 61.9947 125.299 57.728 131.528C53.4613 137.672 45.4827 140.829 33.792 141H33.408ZM114.494 141C115.177 138.952 115.518 136.605 115.518 133.96C115.518 128.84 114.025 123.592 111.038 118.216C108.137 112.84 103.998 106.867 98.622 100.296C93.9287 106.269 90.3447 111.816 87.87 116.936C85.4807 121.971 84.286 126.963 84.286 131.912C84.286 135.155 84.7553 138.184 85.694 141H69.31C69.31 136.648 70.206 132.339 71.998 128.072C73.79 123.805 76.094 119.709 78.91 115.784C81.726 111.773 85.3953 107.037 89.918 101.576C91.6247 99.6133 92.478 97.736 92.478 95.944C92.478 93.8107 91.454 91.5493 89.406 89.16C82.9207 81.48 77.9287 74.696 74.43 68.808C71.0167 62.8347 69.31 57.032 69.31 51.4H85.694C84.67 54.216 84.158 57.032 84.158 59.848C84.158 64.968 85.6087 70.1733 88.51 75.464C91.4113 80.6693 95.55 86.5147 100.926 93C105.79 86.7707 109.502 81.096 112.062 75.976C114.622 70.7707 115.902 65.608 115.902 60.488C115.902 57.2453 115.433 54.216 114.494 51.4H130.878C130.878 55.752 129.982 60.0613 128.19 64.328C126.398 68.5093 124.094 72.6053 121.278 76.616C118.547 80.5413 114.835 85.32 110.142 90.952C108.009 93.5973 106.942 95.816 106.942 97.608C106.942 99.2293 107.582 100.808 108.862 102.344C113.641 107.805 117.523 112.499 120.51 116.424C123.497 120.349 125.971 124.445 127.934 128.712C129.897 132.893 130.878 136.989 130.878 141H114.494Z"/>
<path d="M166.65 131.016C177.999 131.016 185.722 127.731 189.818 121.16C193.914 114.504 195.962 106.184 195.962 96.2C195.962 72.9893 185.765 61.384 165.37 61.384C161.957 61.384 159.354 61.6827 157.562 62.28C155.855 62.792 154.661 63.688 153.978 64.968C153.381 66.1627 153.082 67.9973 153.082 70.472C153.082 72.1787 154.063 73.8427 156.026 75.464C157.989 77.0853 161.061 79.1333 165.242 81.608C169.679 84.3387 173.306 86.7707 176.122 88.904C179.023 91.0373 181.498 93.5973 183.546 96.584C185.594 99.4853 186.618 102.771 186.618 106.44C186.618 108.744 186.063 110.536 184.954 111.816C183.845 113.011 182.778 113.608 181.754 113.608C181.327 113.608 181.029 113.437 180.858 113.096C180.773 112.669 180.73 112.072 180.73 111.304C180.73 106.44 179.791 102.259 177.914 98.76C176.037 95.176 173.775 92.2747 171.13 90.056C168.57 87.752 165.199 85.192 161.018 82.376C156.581 79.3893 153.295 76.8293 151.162 74.696C149.029 72.5627 147.919 69.96 147.834 66.888C147.663 62.024 148.815 57.928 151.29 54.6C153.85 51.1867 158.543 49.48 165.37 49.48C172.453 49.48 178.81 51.2293 184.442 54.728C190.159 58.1413 194.682 63.3893 198.01 70.472C201.338 77.4693 203.002 86.0453 203.002 96.2C203.002 111.56 199.717 123.208 193.146 131.144C186.661 138.995 177.829 142.92 166.65 142.92C159.653 142.92 153.338 141.256 147.706 137.928C142.159 134.515 137.722 129.267 134.394 122.184C131.151 115.016 129.53 106.099 129.53 95.432C129.53 88.6053 130.341 82.4613 131.962 77C133.583 71.5387 135.503 67.3147 137.722 64.328C139.941 61.256 141.818 59.72 143.354 59.72C144.549 59.72 145.359 60.4453 145.786 61.896C146.298 63.2613 146.554 64.84 146.554 66.632C146.554 67.7413 146.469 68.6373 146.298 69.32C145.701 69.32 144.591 70.4293 142.97 72.648C141.349 74.8667 139.855 77.9813 138.49 81.992C137.21 86.0027 136.57 90.7387 136.57 96.2C136.57 102.003 137.551 107.549 139.514 112.84C141.562 118.131 144.847 122.483 149.37 125.896C153.893 129.309 159.653 131.016 166.65 131.016ZM206.81 141C208.09 130.163 209.114 120.435 209.882 111.816C210.65 103.112 211.034 94.6213 211.034 86.344C211.034 71.752 209.626 60.104 206.81 51.4H254.298C258.735 51.4 261.765 51.9973 263.386 53.192C265.093 54.3013 265.946 56.6907 265.946 60.36C265.946 66.0773 264.837 70.984 262.618 75.08C260.485 79.0907 257.754 82.4613 254.426 85.192C251.098 87.8373 246.959 90.568 242.01 93.384C248.41 93.9813 253.615 95.7307 257.626 98.632C261.722 101.448 264.837 106.227 266.97 112.968C269.189 119.709 270.298 129.053 270.298 141H253.786C254.981 137.587 255.578 133.32 255.578 128.2C255.578 119.923 255.109 113.736 254.17 109.64C253.317 105.459 251.482 102.387 248.666 100.424C245.85 98.376 241.455 97.2667 235.482 97.096C230.277 100.168 226.266 103.325 223.45 106.568C220.719 109.725 219.354 113.651 219.354 118.344C219.866 127.304 221.146 134.856 223.194 141H206.81ZM219.098 98.376C243.503 88.648 255.706 78.7067 255.706 68.552C255.706 66.5893 255.407 65.224 254.81 64.456C254.213 63.688 253.103 63.304 251.482 63.304H221.786C220.25 77.64 219.354 89.3307 219.098 98.376ZM283.243 141C280.939 141 279.062 140.232 277.611 138.696C276.16 137.16 275.435 134.941 275.435 132.04C275.435 128.712 277.568 120.861 281.835 108.488C286.187 96.1147 290.88 83.8267 295.915 71.624C300.95 59.4213 304.064 52.7227 305.259 51.528V51.4H317.931C317.504 54.5573 317.291 58.3547 317.291 62.792C317.291 71.4107 318.486 80.072 320.875 88.776C320.96 89.288 320.704 89.7147 320.107 90.056C319.51 90.3973 318.742 90.568 317.803 90.568C316.694 90.568 315.67 90.312 314.731 89.8C313.878 89.2027 313.28 88.3493 312.939 87.24L310.251 78.024C308.715 72.7333 307.648 69.2347 307.051 67.528C306.454 65.8213 305.899 64.9253 305.387 64.84C304.107 65.1813 301.888 69.4053 298.731 77.512C295.659 85.5333 292.8 94.2373 290.155 103.624C287.595 113.011 286.315 119.709 286.315 123.72C286.315 125.512 286.443 126.749 286.699 127.432C287.04 128.115 287.766 128.584 288.875 128.84C289.984 129.096 292.032 129.224 295.019 129.224C297.408 129.224 299.158 128.627 300.267 127.432C301.376 126.237 302.059 124.701 302.315 122.824C302.571 120.947 302.699 118.429 302.699 115.272C302.784 110.323 303.211 106.269 303.979 103.112C304.747 99.8693 306.795 97.096 310.123 94.792C313.536 92.488 318.784 91.336 325.867 91.336C328.939 91.336 330.475 92.6587 330.475 95.304C330.475 95.7307 330.048 96.072 329.195 96.328C328.342 96.584 326.592 96.712 323.947 96.712H322.155C322.923 100.723 323.648 103.752 324.331 105.8C328.427 120.989 332.907 132.723 337.771 141H321.387C320.619 131.272 320.064 124.872 319.723 121.8C319.382 118.728 318.656 114.419 317.547 108.872L315.371 97.352C311.787 98.0347 309.27 99.3147 307.819 101.192C306.454 102.984 305.771 105.373 305.771 108.36C305.771 109.811 306.027 112.499 306.539 116.424C307.136 121.8 307.435 125.555 307.435 127.688C307.435 131.869 306.496 135.155 304.619 137.544C302.827 139.848 300.182 141 296.683 141H283.243Z"/>
</mask>
<path d="M33.408 141H32.896C21.2053 140.829 13.2267 137.672 8.96 131.528C4.69333 125.299 2.56 117.491 2.56 108.104C2.56 104.435 2.688 101.192 2.944 98.376C3.28533 95.56 3.75467 92.4027 4.352 88.904C5.46133 82.5893 6.016 76.7867 6.016 71.496C6.016 64.84 4.94933 58.1413 2.816 51.4H19.2L16.384 65.864C14.1653 76.9573 12.4587 85.832 11.264 92.488C10.1547 99.0587 9.6 104.179 9.6 107.848C9.6 121.928 17.536 129.011 33.408 129.096C49.1947 129.011 57.088 121.928 57.088 107.848C57.088 104.179 56.4907 99.0587 55.296 92.488C54.1867 85.832 52.5227 76.9573 50.304 65.864L47.488 51.4H63.872C61.7387 58.1413 60.672 64.84 60.672 71.496C60.672 76.7867 61.2267 82.5893 62.336 88.904C62.9333 92.4027 63.36 95.56 63.616 98.376C63.9573 101.192 64.128 104.435 64.128 108.104C64.128 117.491 61.9947 125.299 57.728 131.528C53.4613 137.672 45.4827 140.829 33.792 141H33.408ZM114.494 141C115.177 138.952 115.518 136.605 115.518 133.96C115.518 128.84 114.025 123.592 111.038 118.216C108.137 112.84 103.998 106.867 98.622 100.296C93.9287 106.269 90.3447 111.816 87.87 116.936C85.4807 121.971 84.286 126.963 84.286 131.912C84.286 135.155 84.7553 138.184 85.694 141H69.31C69.31 136.648 70.206 132.339 71.998 128.072C73.79 123.805 76.094 119.709 78.91 115.784C81.726 111.773 85.3953 107.037 89.918 101.576C91.6247 99.6133 92.478 97.736 92.478 95.944C92.478 93.8107 91.454 91.5493 89.406 89.16C82.9207 81.48 77.9287 74.696 74.43 68.808C71.0167 62.8347 69.31 57.032 69.31 51.4H85.694C84.67 54.216 84.158 57.032 84.158 59.848C84.158 64.968 85.6087 70.1733 88.51 75.464C91.4113 80.6693 95.55 86.5147 100.926 93C105.79 86.7707 109.502 81.096 112.062 75.976C114.622 70.7707 115.902 65.608 115.902 60.488C115.902 57.2453 115.433 54.216 114.494 51.4H130.878C130.878 55.752 129.982 60.0613 128.19 64.328C126.398 68.5093 124.094 72.6053 121.278 76.616C118.547 80.5413 114.835 85.32 110.142 90.952C108.009 93.5973 106.942 95.816 106.942 97.608C106.942 99.2293 107.582 100.808 108.862 102.344C113.641 107.805 117.523 112.499 120.51 116.424C123.497 120.349 125.971 124.445 127.934 128.712C129.897 132.893 130.878 136.989 130.878 141H114.494Z" fill="#302E4F"/>
<path d="M166.65 131.016C177.999 131.016 185.722 127.731 189.818 121.16C193.914 114.504 195.962 106.184 195.962 96.2C195.962 72.9893 185.765 61.384 165.37 61.384C161.957 61.384 159.354 61.6827 157.562 62.28C155.855 62.792 154.661 63.688 153.978 64.968C153.381 66.1627 153.082 67.9973 153.082 70.472C153.082 72.1787 154.063 73.8427 156.026 75.464C157.989 77.0853 161.061 79.1333 165.242 81.608C169.679 84.3387 173.306 86.7707 176.122 88.904C179.023 91.0373 181.498 93.5973 183.546 96.584C185.594 99.4853 186.618 102.771 186.618 106.44C186.618 108.744 186.063 110.536 184.954 111.816C183.845 113.011 182.778 113.608 181.754 113.608C181.327 113.608 181.029 113.437 180.858 113.096C180.773 112.669 180.73 112.072 180.73 111.304C180.73 106.44 179.791 102.259 177.914 98.76C176.037 95.176 173.775 92.2747 171.13 90.056C168.57 87.752 165.199 85.192 161.018 82.376C156.581 79.3893 153.295 76.8293 151.162 74.696C149.029 72.5627 147.919 69.96 147.834 66.888C147.663 62.024 148.815 57.928 151.29 54.6C153.85 51.1867 158.543 49.48 165.37 49.48C172.453 49.48 178.81 51.2293 184.442 54.728C190.159 58.1413 194.682 63.3893 198.01 70.472C201.338 77.4693 203.002 86.0453 203.002 96.2C203.002 111.56 199.717 123.208 193.146 131.144C186.661 138.995 177.829 142.92 166.65 142.92C159.653 142.92 153.338 141.256 147.706 137.928C142.159 134.515 137.722 129.267 134.394 122.184C131.151 115.016 129.53 106.099 129.53 95.432C129.53 88.6053 130.341 82.4613 131.962 77C133.583 71.5387 135.503 67.3147 137.722 64.328C139.941 61.256 141.818 59.72 143.354 59.72C144.549 59.72 145.359 60.4453 145.786 61.896C146.298 63.2613 146.554 64.84 146.554 66.632C146.554 67.7413 146.469 68.6373 146.298 69.32C145.701 69.32 144.591 70.4293 142.97 72.648C141.349 74.8667 139.855 77.9813 138.49 81.992C137.21 86.0027 136.57 90.7387 136.57 96.2C136.57 102.003 137.551 107.549 139.514 112.84C141.562 118.131 144.847 122.483 149.37 125.896C153.893 129.309 159.653 131.016 166.65 131.016ZM206.81 141C208.09 130.163 209.114 120.435 209.882 111.816C210.65 103.112 211.034 94.6213 211.034 86.344C211.034 71.752 209.626 60.104 206.81 51.4H254.298C258.735 51.4 261.765 51.9973 263.386 53.192C265.093 54.3013 265.946 56.6907 265.946 60.36C265.946 66.0773 264.837 70.984 262.618 75.08C260.485 79.0907 257.754 82.4613 254.426 85.192C251.098 87.8373 246.959 90.568 242.01 93.384C248.41 93.9813 253.615 95.7307 257.626 98.632C261.722 101.448 264.837 106.227 266.97 112.968C269.189 119.709 270.298 129.053 270.298 141H253.786C254.981 137.587 255.578 133.32 255.578 128.2C255.578 119.923 255.109 113.736 254.17 109.64C253.317 105.459 251.482 102.387 248.666 100.424C245.85 98.376 241.455 97.2667 235.482 97.096C230.277 100.168 226.266 103.325 223.45 106.568C220.719 109.725 219.354 113.651 219.354 118.344C219.866 127.304 221.146 134.856 223.194 141H206.81ZM219.098 98.376C243.503 88.648 255.706 78.7067 255.706 68.552C255.706 66.5893 255.407 65.224 254.81 64.456C254.213 63.688 253.103 63.304 251.482 63.304H221.786C220.25 77.64 219.354 89.3307 219.098 98.376ZM283.243 141C280.939 141 279.062 140.232 277.611 138.696C276.16 137.16 275.435 134.941 275.435 132.04C275.435 128.712 277.568 120.861 281.835 108.488C286.187 96.1147 290.88 83.8267 295.915 71.624C300.95 59.4213 304.064 52.7227 305.259 51.528V51.4H317.931C317.504 54.5573 317.291 58.3547 317.291 62.792C317.291 71.4107 318.486 80.072 320.875 88.776C320.96 89.288 320.704 89.7147 320.107 90.056C319.51 90.3973 318.742 90.568 317.803 90.568C316.694 90.568 315.67 90.312 314.731 89.8C313.878 89.2027 313.28 88.3493 312.939 87.24L310.251 78.024C308.715 72.7333 307.648 69.2347 307.051 67.528C306.454 65.8213 305.899 64.9253 305.387 64.84C304.107 65.1813 301.888 69.4053 298.731 77.512C295.659 85.5333 292.8 94.2373 290.155 103.624C287.595 113.011 286.315 119.709 286.315 123.72C286.315 125.512 286.443 126.749 286.699 127.432C287.04 128.115 287.766 128.584 288.875 128.84C289.984 129.096 292.032 129.224 295.019 129.224C297.408 129.224 299.158 128.627 300.267 127.432C301.376 126.237 302.059 124.701 302.315 122.824C302.571 120.947 302.699 118.429 302.699 115.272C302.784 110.323 303.211 106.269 303.979 103.112C304.747 99.8693 306.795 97.096 310.123 94.792C313.536 92.488 318.784 91.336 325.867 91.336C328.939 91.336 330.475 92.6587 330.475 95.304C330.475 95.7307 330.048 96.072 329.195 96.328C328.342 96.584 326.592 96.712 323.947 96.712H322.155C322.923 100.723 323.648 103.752 324.331 105.8C328.427 120.989 332.907 132.723 337.771 141H321.387C320.619 131.272 320.064 124.872 319.723 121.8C319.382 118.728 318.656 114.419 317.547 108.872L315.371 97.352C311.787 98.0347 309.27 99.3147 307.819 101.192C306.454 102.984 305.771 105.373 305.771 108.36C305.771 109.811 306.027 112.499 306.539 116.424C307.136 121.8 307.435 125.555 307.435 127.688C307.435 131.869 306.496 135.155 304.619 137.544C302.827 139.848 300.182 141 296.683 141H283.243Z" fill="white"/>
<path d="M32.896 141L32.8814 142L32.8887 142H32.896V141ZM8.96 131.528L8.13495 132.093L8.13863 132.098L8.96 131.528ZM2.944 98.376L1.95127 98.2557L1.94946 98.2705L1.94811 98.2855L2.944 98.376ZM4.352 88.904L3.36707 88.731L3.36626 88.7357L4.352 88.904ZM2.816 51.4V50.4H1.45067L1.8626 51.7017L2.816 51.4ZM19.2 51.4L20.1816 51.5911L20.4135 50.4H19.2V51.4ZM16.384 65.864L17.3646 66.0601L17.3656 66.0551L16.384 65.864ZM11.264 92.488L10.2797 92.3113L10.278 92.3215L11.264 92.488ZM33.408 129.096L33.4026 130.096L33.4134 130.096L33.408 129.096ZM55.296 92.488L54.3096 92.6524L54.3108 92.6597L54.3121 92.6669L55.296 92.488ZM50.304 65.864L49.3224 66.0551L49.3234 66.0601L50.304 65.864ZM47.488 51.4V50.4H46.2745L46.5064 51.5911L47.488 51.4ZM63.872 51.4L64.8254 51.7017L65.2373 50.4H63.872V51.4ZM62.336 88.904L63.3218 88.7357L63.3209 88.731L62.336 88.904ZM63.616 98.376L62.6201 98.4665L62.6215 98.4815L62.6233 98.4963L63.616 98.376ZM57.728 131.528L58.5494 132.098L58.553 132.093L57.728 131.528ZM33.792 141V142H33.7993L33.8066 142L33.792 141ZM33.408 141V140H32.896V141V142H33.408V141ZM32.896 141L32.9106 140C21.3559 139.831 13.7787 136.714 9.78137 130.958L8.96 131.528L8.13863 132.098C12.6746 138.63 21.0548 141.827 32.8814 142L32.896 141ZM8.96 131.528L9.78503 130.963C5.65737 124.937 3.56 117.338 3.56 108.104H2.56H1.56C1.56 117.643 3.7293 125.661 8.13497 132.093L8.96 131.528ZM2.56 108.104H3.56C3.56 104.457 3.68729 101.245 3.93989 98.4665L2.944 98.376L1.94811 98.2855C1.68871 101.139 1.56 104.413 1.56 108.104H2.56ZM2.944 98.376L3.93673 98.4963C4.27571 95.6998 4.74248 92.5588 5.33774 89.0723L4.352 88.904L3.36626 88.7357C2.76685 92.2465 2.29495 95.4202 1.95127 98.2557L2.944 98.376ZM4.352 88.904L5.33692 89.077C6.45426 82.7168 7.016 76.8553 7.016 71.496H6.016H5.016C5.016 76.718 4.46841 82.4619 3.36708 88.731L4.352 88.904ZM6.016 71.496H7.016C7.016 64.7314 5.93169 57.9311 3.7694 51.0983L2.816 51.4L1.8626 51.7017C3.96698 58.3515 5.016 64.9486 5.016 71.496H6.016ZM2.816 51.4V52.4H19.2V51.4V50.4H2.816V51.4ZM19.2 51.4L18.2184 51.2089L15.4024 65.6729L16.384 65.864L17.3656 66.0551L20.1816 51.5911L19.2 51.4ZM16.384 65.864L15.4034 65.6679C13.1842 76.764 11.4761 85.646 10.2797 92.3113L11.264 92.488L12.2483 92.6647C13.4413 86.018 15.1465 77.1506 17.3646 66.0601L16.384 65.864ZM11.264 92.488L10.278 92.3215C9.16553 98.9105 8.6 104.095 8.6 107.848H9.6H10.6C10.6 104.262 11.1438 99.2068 12.25 92.6545L11.264 92.488ZM9.6 107.848H8.6C8.6 115.076 10.6424 120.679 14.8861 124.466C19.1074 128.233 25.3395 130.053 33.4026 130.096L33.408 129.096L33.4134 128.096C25.6045 128.054 19.9326 126.289 16.2179 122.974C12.5256 119.679 10.6 114.7 10.6 107.848H9.6ZM33.408 129.096L33.4134 130.096C41.4349 130.053 47.6359 128.233 51.8359 124.464C56.0572 120.676 58.088 115.074 58.088 107.848H57.088H56.088C56.088 114.702 54.1721 119.681 50.5001 122.976C46.8068 126.29 41.1677 128.054 33.4026 128.096L33.408 129.096ZM57.088 107.848H58.088C58.088 104.089 57.4781 98.8993 56.2799 92.3091L55.296 92.488L54.3121 92.6669C55.5033 99.2181 56.088 104.269 56.088 107.848H57.088ZM55.296 92.488L56.2824 92.3236C55.1705 85.6523 53.5042 76.7658 51.2846 65.6679L50.304 65.864L49.3234 66.0601C51.5412 77.1489 53.2028 86.0117 54.3096 92.6524L55.296 92.488ZM50.304 65.864L51.2856 65.6729L48.4696 51.2089L47.488 51.4L46.5064 51.5911L49.3224 66.0551L50.304 65.864ZM47.488 51.4V52.4H63.872V51.4V50.4H47.488V51.4ZM63.872 51.4L62.9186 51.0983C60.7563 57.9311 59.672 64.7314 59.672 71.496H60.672H61.672C61.672 64.9486 62.721 58.3515 64.8254 51.7017L63.872 51.4ZM60.672 71.496H59.672C59.672 76.8553 60.2337 82.7168 61.3511 89.077L62.336 88.904L63.3209 88.731C62.2196 82.4619 61.672 76.718 61.672 71.496H60.672ZM62.336 88.904L61.3503 89.0723C61.9443 92.5514 62.367 95.6821 62.6201 98.4665L63.616 98.376L64.6119 98.2855C64.353 95.4379 63.9224 92.254 63.3217 88.7357L62.336 88.904ZM63.616 98.376L62.6233 98.4963C62.9586 101.263 63.128 104.464 63.128 108.104H64.128H65.128C65.128 104.405 64.9561 101.121 64.6087 98.2557L63.616 98.376ZM64.128 108.104H63.128C63.128 117.338 61.0306 124.937 56.903 130.963L57.728 131.528L58.553 132.093C62.9587 125.661 65.128 117.643 65.128 108.104H64.128ZM57.728 131.528L56.9066 130.958C52.9093 136.714 45.3321 139.831 33.7774 140L33.792 141L33.8066 142C45.6332 141.827 54.0134 138.63 58.5494 132.098L57.728 131.528ZM33.792 141V140H33.408V141V142H33.792V141ZM114.494 141L113.545 140.684L113.107 142H114.494V141ZM111.038 118.216L110.158 118.691L110.164 118.702L111.038 118.216ZM98.622 100.296L99.396 99.6628L98.6062 98.6975L97.8357 99.6782L98.622 100.296ZM87.87 116.936L86.9696 116.501L86.9666 116.507L87.87 116.936ZM85.694 141V142H87.0814L86.6427 140.684L85.694 141ZM69.31 141H68.31V142H69.31V141ZM71.998 128.072L71.076 127.685L71.998 128.072ZM78.91 115.784L79.7226 116.367L79.7284 116.359L78.91 115.784ZM89.918 101.576L89.1634 100.92L89.1555 100.929L89.1478 100.938L89.918 101.576ZM89.406 89.16L88.6419 89.8052L88.6467 89.8108L89.406 89.16ZM74.43 68.808L73.5618 69.3041L73.566 69.3115L73.5703 69.3188L74.43 68.808ZM69.31 51.4V50.4H68.31V51.4H69.31ZM85.694 51.4L86.6338 51.7417L87.1217 50.4H85.694V51.4ZM88.51 75.464L87.6332 75.9448L87.6365 75.9509L88.51 75.464ZM100.926 93L100.156 93.6382L100.949 94.595L101.714 93.6154L100.926 93ZM112.062 75.976L112.956 76.4232L112.959 76.4173L112.062 75.976ZM114.494 51.4V50.4H113.107L113.545 51.7162L114.494 51.4ZM130.878 51.4H131.878V50.4H130.878V51.4ZM128.19 64.328L129.109 64.7219L129.112 64.7152L128.19 64.328ZM121.278 76.616L120.46 76.0414L120.457 76.0449L121.278 76.616ZM110.142 90.952L109.374 90.3118L109.369 90.318L109.364 90.3242L110.142 90.952ZM108.862 102.344L108.094 102.984L108.101 102.993L108.109 103.003L108.862 102.344ZM120.51 116.424L119.714 117.03L119.714 117.03L120.51 116.424ZM127.934 128.712L127.025 129.13L127.029 129.137L127.934 128.712ZM130.878 141V142H131.878V141H130.878ZM114.494 141L115.443 141.316C116.166 139.146 116.518 136.689 116.518 133.96H115.518H114.518C114.518 136.521 114.187 138.758 113.545 140.684L114.494 141ZM115.518 133.96H116.518C116.518 128.639 114.965 123.225 111.912 117.73L111.038 118.216L110.164 118.702C113.085 123.959 114.518 129.041 114.518 133.96H115.518ZM111.038 118.216L111.918 117.741C108.977 112.292 104.798 106.265 99.396 99.6628L98.622 100.296L97.848 100.929C103.198 107.468 107.296 113.388 110.158 118.691L111.038 118.216ZM98.622 100.296L97.8357 99.6782C93.1117 105.691 89.4841 111.299 86.9697 116.501L87.87 116.936L88.7703 117.371C91.2053 112.333 94.7456 106.848 99.4083 100.914L98.622 100.296ZM87.87 116.936L86.9666 116.507C84.5217 121.659 83.286 126.797 83.286 131.912H84.286H85.286C85.286 127.129 86.4396 122.282 88.7734 117.365L87.87 116.936ZM84.286 131.912H83.286C83.286 135.252 83.7697 138.389 84.7453 141.316L85.694 141L86.6427 140.684C85.741 137.979 85.286 135.057 85.286 131.912H84.286ZM85.694 141V140H69.31V141V142H85.694V141ZM69.31 141H70.31C70.31 136.789 71.1762 132.611 72.92 128.459L71.998 128.072L71.076 127.685C69.2358 132.066 68.31 136.507 68.31 141H69.31ZM71.998 128.072L72.92 128.459C74.6817 124.265 76.9483 120.234 79.7225 116.367L78.91 115.784L78.0975 115.201C75.2397 119.185 72.8983 123.346 71.076 127.685L71.998 128.072ZM78.91 115.784L79.7284 116.359C82.5241 112.377 86.1757 107.663 90.6882 102.214L89.918 101.576L89.1478 100.938C84.615 106.412 80.9279 111.17 78.0916 115.209L78.91 115.784ZM89.918 101.576L90.6726 102.232C92.4674 100.168 93.478 98.066 93.478 95.944H92.478H91.478C91.478 97.406 90.7819 99.0585 89.1634 100.92L89.918 101.576ZM92.478 95.944H93.478C93.478 93.4809 92.2968 90.996 90.1653 88.5092L89.406 89.16L88.6467 89.8108C90.6112 92.1027 91.478 94.1404 91.478 95.944H92.478ZM89.406 89.16L90.17 88.5148C83.7054 80.8593 78.7505 74.1215 75.2897 68.2972L74.43 68.808L73.5703 69.3188C77.1068 75.2705 82.1359 82.1006 88.642 89.8052L89.406 89.16ZM74.43 68.808L75.2982 68.3119C71.9522 62.4563 70.31 56.8233 70.31 51.4H69.31H68.31C68.31 57.2407 70.0811 63.213 73.5618 69.3041L74.43 68.808ZM69.31 51.4V52.4H85.694V51.4V50.4H69.31V51.4ZM85.694 51.4L84.7542 51.0583C83.6929 53.9767 83.158 56.9082 83.158 59.848H84.158H85.158C85.158 57.1558 85.6471 54.4553 86.6338 51.7417L85.694 51.4ZM84.158 59.848H83.158C83.158 65.1638 84.6655 70.5332 87.6332 75.9448L88.51 75.464L89.3868 74.9832C86.5518 69.8135 85.158 64.7722 85.158 59.848H84.158ZM88.51 75.464L87.6365 75.9509C90.5771 81.2266 94.7557 87.1233 100.156 93.6382L100.926 93L101.696 92.3618C96.3443 85.906 92.2456 80.1121 89.3835 74.9771L88.51 75.464ZM100.926 93L101.714 93.6154C106.605 87.3519 110.358 81.6203 112.956 76.4232L112.062 75.976L111.168 75.5288C108.646 80.5717 104.975 86.1894 100.138 92.3846L100.926 93ZM112.062 75.976L112.959 76.4173C115.578 71.093 116.902 65.7803 116.902 60.488H115.902H114.902C114.902 65.4357 113.666 70.4483 111.165 75.5347L112.062 75.976ZM115.902 60.488H116.902C116.902 57.1477 116.418 54.0107 115.443 51.0838L114.494 51.4L113.545 51.7162C114.447 54.4213 114.902 57.3429 114.902 60.488H115.902ZM114.494 51.4V52.4H130.878V51.4V50.4H114.494V51.4ZM130.878 51.4H129.878C129.878 55.6107 129.012 59.7888 127.268 63.9408L128.19 64.328L129.112 64.7152C130.952 60.3338 131.878 55.8933 131.878 51.4H130.878ZM128.19 64.328L127.271 63.9341C125.508 68.0472 123.239 72.083 120.46 76.0414L121.278 76.616L122.096 77.1906C124.949 73.1277 127.288 68.9715 129.109 64.7219L128.19 64.328ZM121.278 76.616L120.457 76.0449C117.749 79.9375 114.057 84.6917 109.374 90.3118L110.142 90.952L110.91 91.5922C115.613 85.9483 119.345 81.1452 122.099 77.1871L121.278 76.616ZM110.142 90.952L109.364 90.3242C107.198 93.0094 105.942 95.4577 105.942 97.608H106.942H107.942C107.942 96.1743 108.819 94.1853 110.92 91.5797L110.142 90.952ZM106.942 97.608H105.942C105.942 99.514 106.7 101.312 108.094 102.984L108.862 102.344L109.63 101.704C108.464 100.304 107.942 98.9446 107.942 97.608H106.942ZM108.862 102.344L108.109 103.003C112.879 108.454 116.746 113.129 119.714 117.03L120.51 116.424L121.306 115.818C118.301 111.869 114.402 107.157 109.615 101.685L108.862 102.344ZM120.51 116.424L119.714 117.03C122.659 120.9 125.095 124.933 127.026 129.13L127.934 128.712L128.842 128.294C126.848 123.958 124.335 119.799 121.306 115.818L120.51 116.424ZM127.934 128.712L127.029 129.137C128.938 133.205 129.878 137.157 129.878 141H130.878H131.878C131.878 136.822 130.855 132.581 128.839 128.287L127.934 128.712ZM130.878 141V140H114.494V141V142H130.878V141ZM189.818 121.16L190.667 121.689L190.67 121.684L189.818 121.16ZM157.562 62.28L157.849 63.2378L157.864 63.2335L157.878 63.2287L157.562 62.28ZM153.978 64.968L153.096 64.4974L153.089 64.509L153.084 64.5208L153.978 64.968ZM156.026 75.464L155.389 76.235L156.026 75.464ZM165.242 81.608L165.766 80.7563L165.759 80.7518L165.751 80.7474L165.242 81.608ZM176.122 88.904L175.518 89.7011L175.524 89.7054L175.53 89.7097L176.122 88.904ZM183.546 96.584L182.721 97.1496L182.729 97.1607L183.546 96.584ZM184.954 111.816L185.687 112.496L185.698 112.484L185.71 112.471L184.954 111.816ZM180.858 113.096L179.877 113.292L179.904 113.423L179.964 113.543L180.858 113.096ZM177.914 98.76L177.028 99.224L177.033 99.2328L177.914 98.76ZM171.13 90.056L170.461 90.7993L170.474 90.811L170.487 90.8222L171.13 90.056ZM161.018 82.376L161.577 81.5466L161.576 81.5464L161.018 82.376ZM151.162 74.696L150.455 75.4031L150.455 75.4031L151.162 74.696ZM147.834 66.888L148.834 66.8602L148.833 66.8529L147.834 66.888ZM151.29 54.6L150.49 54L150.488 54.0033L151.29 54.6ZM184.442 54.728L183.914 55.5774L183.922 55.5821L183.929 55.5866L184.442 54.728ZM198.01 70.472L197.105 70.8973L197.107 70.9015L198.01 70.472ZM193.146 131.144L192.376 130.506L192.375 130.507L193.146 131.144ZM147.706 137.928L147.182 138.78L147.19 138.784L147.197 138.789L147.706 137.928ZM134.394 122.184L133.483 122.596L133.486 122.603L133.489 122.609L134.394 122.184ZM131.962 77L132.921 77.2846L132.921 77.2846L131.962 77ZM137.722 64.328L138.525 64.9244L138.533 64.9135L137.722 64.328ZM145.786 61.896L144.827 62.1782L144.837 62.2131L144.85 62.2471L145.786 61.896ZM146.298 69.32V70.32H147.079L147.268 69.5625L146.298 69.32ZM142.97 72.648L142.163 72.058L142.163 72.058L142.97 72.648ZM138.49 81.992L137.543 81.6697L137.54 81.6788L137.537 81.688L138.49 81.992ZM139.514 112.84L138.576 113.188L138.581 113.201L139.514 112.84ZM149.37 125.896L149.972 125.098L149.972 125.098L149.37 125.896ZM166.65 131.016V132.016C178.171 132.016 186.312 128.675 190.667 121.689L189.818 121.16L188.969 120.631C185.132 126.786 177.828 130.016 166.65 130.016V131.016ZM189.818 121.16L190.67 121.684C194.886 114.832 196.962 106.318 196.962 96.2H195.962H194.962C194.962 106.05 192.942 114.176 188.966 120.636L189.818 121.16ZM195.962 96.2H196.962C196.962 84.47 194.388 75.4858 189.065 69.4279C183.721 63.3454 175.757 60.384 165.37 60.384V61.384V62.384C175.377 62.384 182.71 65.2253 187.563 70.7481C192.437 76.2956 194.962 84.7193 194.962 96.2H195.962ZM165.37 61.384V60.384C161.921 60.384 159.191 60.6829 157.246 61.3313L157.562 62.28L157.878 63.2287C159.517 62.6824 161.992 62.384 165.37 62.384V61.384ZM157.562 62.28L157.275 61.3222C155.375 61.8922 153.931 62.9306 153.096 64.4974L153.978 64.968L154.86 65.4386C155.39 64.4454 156.336 63.6918 157.849 63.2378L157.562 62.28ZM153.978 64.968L153.084 64.5208C152.38 65.9277 152.082 67.9529 152.082 70.472H153.082H154.082C154.082 68.0417 154.381 66.3976 154.872 65.4152L153.978 64.968ZM153.082 70.472H152.082C152.082 72.5999 153.312 74.5191 155.389 76.235L156.026 75.464L156.663 74.693C154.815 73.1663 154.082 71.7574 154.082 70.472H153.082ZM156.026 75.464L155.389 76.235C157.413 77.907 160.539 79.9866 164.733 82.4686L165.242 81.608L165.751 80.7474C161.582 78.28 158.564 76.2637 156.663 74.693L156.026 75.464ZM165.242 81.608L164.718 82.4597C169.139 85.1805 172.737 87.594 175.518 89.7011L176.122 88.904L176.726 88.1069C173.875 85.9473 170.219 83.4968 165.766 80.7563L165.242 81.608ZM176.122 88.904L175.53 89.7097C178.34 91.7762 180.736 94.2548 182.721 97.1495L183.546 96.584L184.371 96.0185C182.26 92.9398 179.707 90.2985 176.714 88.0983L176.122 88.904ZM183.546 96.584L182.729 97.1607C184.654 99.8874 185.618 102.97 185.618 106.44H186.618H187.618C187.618 102.571 186.534 99.0832 184.363 96.0073L183.546 96.584ZM186.618 106.44H185.618C185.618 108.59 185.101 110.119 184.198 111.161L184.954 111.816L185.71 112.471C187.026 110.953 187.618 108.898 187.618 106.44H186.618ZM184.954 111.816L184.221 111.136C183.192 112.244 182.372 112.608 181.754 112.608V113.608V114.608C183.184 114.608 184.498 113.777 185.687 112.496L184.954 111.816ZM181.754 113.608V112.608C181.714 112.608 181.693 112.604 181.687 112.603C181.682 112.601 181.691 112.603 181.706 112.612C181.714 112.616 181.721 112.621 181.729 112.627C181.736 112.633 181.742 112.639 181.747 112.644C181.757 112.655 181.758 112.659 181.752 112.649L180.858 113.096L179.964 113.543C180.127 113.87 180.375 114.154 180.714 114.348C181.047 114.538 181.408 114.608 181.754 114.608V113.608ZM180.858 113.096L181.839 112.9C181.772 112.569 181.73 112.048 181.73 111.304H180.73H179.73C179.73 112.096 179.773 112.77 179.877 113.292L180.858 113.096ZM180.73 111.304H181.73C181.73 106.312 180.766 101.96 178.795 98.2872L177.914 98.76L177.033 99.2328C178.816 102.557 179.73 106.568 179.73 111.304H180.73ZM177.914 98.76L178.8 98.296C176.872 94.6159 174.534 91.6055 171.773 89.2898L171.13 90.056L170.487 90.8222C173.017 92.9438 175.201 95.7361 177.028 99.224L177.914 98.76ZM171.13 90.056L171.799 89.3127C169.192 86.9667 165.781 84.3779 161.577 81.5466L161.018 82.376L160.459 83.2054C164.618 86.0061 167.948 88.5372 170.461 90.7993L171.13 90.056ZM161.018 82.376L161.576 81.5464C157.158 78.5727 153.935 76.0547 151.869 73.9889L151.162 74.696L150.455 75.4031C152.656 77.6039 156.003 80.206 160.46 83.2056L161.018 82.376ZM151.162 74.696L151.869 73.9889C149.92 72.04 148.912 69.682 148.834 66.8602L147.834 66.888L146.834 66.9158C146.927 70.238 148.137 73.0853 150.455 75.4031L151.162 74.696ZM147.834 66.888L148.833 66.8529C148.669 62.1747 149.776 58.3121 152.092 55.1967L151.29 54.6L150.488 54.0033C147.855 57.5439 146.657 61.8733 146.835 66.9231L147.834 66.888ZM151.29 54.6L152.09 55.2C154.37 52.1594 158.668 50.48 165.37 50.48V49.48V48.48C158.419 48.48 153.33 50.2139 150.49 54L151.29 54.6ZM165.37 49.48V50.48C172.279 50.48 178.452 52.184 183.914 55.5774L184.442 54.728L184.97 53.8786C179.168 50.2747 172.626 48.48 165.37 48.48V49.48ZM184.442 54.728L183.929 55.5866C189.447 58.8809 193.846 63.9626 197.105 70.8973L198.01 70.472L198.915 70.0467C195.518 62.8161 190.871 57.4017 184.955 53.8694L184.442 54.728ZM198.01 70.472L197.107 70.9015C200.355 77.7297 202.002 86.1497 202.002 96.2H203.002H204.002C204.002 85.941 202.321 77.2089 198.913 70.0425L198.01 70.472ZM203.002 96.2H202.002C202.002 111.437 198.74 122.819 192.376 130.506L193.146 131.144L193.916 131.782C200.693 123.597 204.002 111.683 204.002 96.2H203.002ZM193.146 131.144L192.375 130.507C186.1 138.103 177.563 141.92 166.65 141.92V142.92V143.92C178.094 143.92 187.222 139.886 193.917 131.781L193.146 131.144ZM166.65 142.92V141.92C159.819 141.92 153.682 140.298 148.215 137.067L147.706 137.928L147.197 138.789C152.994 142.214 159.487 143.92 166.65 143.92V142.92ZM147.706 137.928L148.23 137.076C142.88 133.784 138.561 128.701 135.299 121.759L134.394 122.184L133.489 122.609C136.883 129.832 141.439 135.245 147.182 138.78L147.706 137.928ZM134.394 122.184L135.305 121.772C132.138 114.771 130.53 106.004 130.53 95.432H129.53H128.53C128.53 106.193 130.165 115.261 133.483 122.596L134.394 122.184ZM129.53 95.432H130.53C130.53 88.6832 131.332 82.6374 132.921 77.2846L131.962 77L131.003 76.7154C129.35 82.2853 128.53 88.5274 128.53 95.432H129.53ZM131.962 77L132.921 77.2846C134.524 71.8823 136.403 67.7809 138.525 64.9243L137.722 64.328L136.919 63.7317C134.604 66.8484 132.642 71.1951 131.003 76.7154L131.962 77ZM137.722 64.328L138.533 64.9135C139.616 63.4131 140.582 62.3374 141.427 61.646C142.285 60.9445 142.917 60.72 143.354 60.72V59.72V58.72C142.255 58.72 141.181 59.2635 140.161 60.098C139.129 60.9426 138.046 62.1709 136.911 63.7425L137.722 64.328ZM143.354 59.72V60.72C143.731 60.72 143.988 60.8272 144.191 61.0092C144.414 61.2084 144.646 61.5646 144.827 62.1782L145.786 61.896L146.745 61.6138C146.499 60.7767 146.113 60.045 145.525 59.5188C144.918 58.9754 144.171 58.72 143.354 58.72V59.72ZM145.786 61.896L144.85 62.2471C145.311 63.4778 145.554 64.9334 145.554 66.632H146.554H147.554C147.554 64.7466 147.285 63.0449 146.722 61.5449L145.786 61.896ZM146.554 66.632H145.554C145.554 67.7007 145.471 68.506 145.328 69.0775L146.298 69.32L147.268 69.5625C147.467 68.7687 147.554 67.782 147.554 66.632H146.554ZM146.298 69.32V68.32C145.862 68.32 145.483 68.5113 145.209 68.6896C144.915 68.8808 144.614 69.1417 144.311 69.4449C143.703 70.0532 142.985 70.933 142.163 72.058L142.97 72.648L143.777 73.238C144.577 72.1443 145.224 71.3601 145.725 70.8591C145.977 70.6076 146.167 70.4525 146.299 70.3664C146.451 70.2673 146.435 70.32 146.298 70.32V69.32ZM142.97 72.648L142.163 72.058C140.458 74.39 138.926 77.6092 137.543 81.6697L138.49 81.992L139.437 82.3143C140.785 78.3534 142.239 75.3433 143.777 73.238L142.97 72.648ZM138.49 81.992L137.537 81.688C136.218 85.8211 135.57 90.6644 135.57 96.2H136.57H137.57C137.57 90.8129 138.202 86.1842 139.443 82.296L138.49 81.992ZM136.57 96.2H135.57C135.57 102.118 136.571 107.783 138.576 113.188L139.514 112.84L140.452 112.492C138.531 107.316 137.57 101.887 137.57 96.2H136.57ZM139.514 112.84L138.581 113.201C140.697 118.665 144.096 123.169 148.768 126.694L149.37 125.896L149.972 125.098C145.599 121.797 142.427 117.596 140.447 112.479L139.514 112.84ZM149.37 125.896L148.768 126.694C153.501 130.267 159.487 132.016 166.65 132.016V131.016V130.016C159.818 130.016 154.284 128.352 149.972 125.098L149.37 125.896ZM206.81 141L205.817 140.883L205.685 142H206.81V141ZM209.882 111.816L210.878 111.905L210.878 111.904L209.882 111.816ZM206.81 51.4V50.4H205.435L205.859 51.7078L206.81 51.4ZM263.386 53.192L262.793 53.997L262.816 54.0145L262.841 54.0304L263.386 53.192ZM262.618 75.08L261.739 74.6037L261.735 74.6104L262.618 75.08ZM254.426 85.192L255.048 85.9748L255.054 85.97L255.06 85.9651L254.426 85.192ZM242.01 93.384L241.515 92.5148L238.756 94.0847L241.917 94.3797L242.01 93.384ZM257.626 98.632L257.04 99.4422L257.05 99.4492L257.059 99.456L257.626 98.632ZM266.97 112.968L266.017 113.27L266.02 113.281L266.97 112.968ZM270.298 141V142H271.298V141H270.298ZM253.786 141L252.842 140.67L252.377 142H253.786V141ZM254.17 109.64L253.19 109.84L253.193 109.852L253.195 109.863L254.17 109.64ZM248.666 100.424L248.078 101.233L248.086 101.239L248.094 101.244L248.666 100.424ZM235.482 97.096L235.511 96.0964L235.222 96.0882L234.974 96.2348L235.482 97.096ZM223.45 106.568L222.695 105.912L222.694 105.914L223.45 106.568ZM219.354 118.344H218.354V118.373L218.356 118.401L219.354 118.344ZM223.194 141V142H224.581L224.143 140.684L223.194 141ZM219.098 98.376L218.098 98.3477L218.055 99.8681L219.468 99.3049L219.098 98.376ZM221.786 63.304V62.304H220.887L220.792 63.1975L221.786 63.304ZM206.81 141L207.803 141.117C209.084 130.273 210.109 120.535 210.878 111.905L209.882 111.816L208.886 111.727C208.119 120.334 207.096 130.053 205.817 140.883L206.81 141ZM209.882 111.816L210.878 111.904C211.649 103.172 212.034 94.6522 212.034 86.344H211.034H210.034C210.034 94.5904 209.651 103.052 208.886 111.728L209.882 111.816ZM211.034 86.344H212.034C212.034 71.7019 210.623 59.9367 207.761 51.0922L206.81 51.4L205.859 51.7078C208.629 60.2713 210.034 71.8021 210.034 86.344H211.034ZM206.81 51.4V52.4H254.298V51.4V50.4H206.81V51.4ZM254.298 51.4V52.4C256.477 52.4 258.275 52.5471 259.705 52.8291C261.144 53.113 262.147 53.5213 262.793 53.997L263.386 53.192L263.979 52.3869C263.004 51.6681 261.681 51.1803 260.091 50.8669C258.492 50.5515 256.556 50.4 254.298 50.4V51.4ZM263.386 53.192L262.841 54.0304C264.096 54.8464 264.946 56.763 264.946 60.36H265.946H266.946C266.946 56.6183 266.089 53.7562 263.931 52.3536L263.386 53.192ZM265.946 60.36H264.946C264.946 65.9484 263.862 70.6836 261.739 74.6037L262.618 75.08L263.497 75.5563C265.811 71.2843 266.946 66.2063 266.946 60.36H265.946ZM262.618 75.08L261.735 74.6104C259.66 78.511 257.012 81.7766 253.792 84.4189L254.426 85.192L255.06 85.9651C258.496 83.1461 261.309 79.6703 263.501 75.5496L262.618 75.08ZM254.426 85.192L253.804 84.4092C250.527 87.0138 246.434 89.7163 241.515 92.5148L242.01 93.384L242.505 94.2532C247.485 91.4197 251.669 88.6608 255.048 85.9748L254.426 85.192ZM242.01 93.384L241.917 94.3797C248.191 94.9652 253.211 96.6725 257.04 99.4422L257.626 98.632L258.212 97.8218C254.019 94.7888 248.629 92.9974 242.103 92.3883L242.01 93.384ZM257.626 98.632L257.059 99.456C260.908 102.102 263.923 106.653 266.017 113.27L266.97 112.968L267.923 112.666C265.751 105.8 262.536 100.794 258.193 97.808L257.626 98.632ZM266.97 112.968L266.02 113.281C268.191 119.875 269.298 129.097 269.298 141H270.298H271.298C271.298 129.009 270.187 119.543 267.92 112.655L266.97 112.968ZM270.298 141V140H253.786V141V142H270.298V141ZM253.786 141L254.73 141.33C255.974 137.777 256.578 133.39 256.578 128.2H255.578H254.578C254.578 133.25 253.988 137.397 252.842 140.67L253.786 141ZM255.578 128.2H256.578C256.578 119.905 256.109 113.626 255.145 109.417L254.17 109.64L253.195 109.863C254.108 113.846 254.578 119.94 254.578 128.2H255.578ZM254.17 109.64L255.15 109.44C254.258 105.071 252.313 101.747 249.238 99.6036L248.666 100.424L248.094 101.244C250.651 103.027 252.375 105.846 253.19 109.84L254.17 109.64ZM248.666 100.424L249.254 99.6153C246.195 97.3907 241.557 96.2692 235.511 96.0964L235.482 97.096L235.453 98.0956C241.354 98.2642 245.505 99.3613 248.078 101.233L248.666 100.424ZM235.482 97.096L234.974 96.2348C229.71 99.3411 225.604 102.563 222.695 105.912L223.45 106.568L224.205 107.224C226.928 104.088 230.843 100.995 235.99 97.9572L235.482 97.096ZM223.45 106.568L222.694 105.914C219.786 109.276 218.354 113.442 218.354 118.344H219.354H220.354C220.354 113.859 221.653 110.175 224.206 107.222L223.45 106.568ZM219.354 118.344L218.356 118.401C218.871 127.418 220.161 135.063 222.245 141.316L223.194 141L224.143 140.684C222.131 134.649 220.861 127.19 220.352 118.287L219.354 118.344ZM223.194 141V140H206.81V141V142H223.194V141ZM219.098 98.376L219.468 99.3049C231.711 94.4249 240.97 89.4628 247.186 84.3993C253.391 79.344 256.706 74.0643 256.706 68.552H255.706H254.706C254.706 73.1943 251.92 77.9627 245.922 82.8487C239.935 87.7266 230.89 92.5991 218.728 97.4471L219.098 98.376ZM255.706 68.552H256.706C256.706 66.5561 256.416 64.892 255.599 63.8421L254.81 64.456L254.021 65.0699C254.399 65.556 254.706 66.6225 254.706 68.552H255.706ZM254.81 64.456L255.599 63.8421C254.716 62.706 253.209 62.304 251.482 62.304V63.304V64.304C252.997 64.304 253.71 64.67 254.021 65.0699L254.81 64.456ZM251.482 63.304V62.304H221.786V63.304V64.304H251.482V63.304ZM221.786 63.304L220.792 63.1975C219.254 77.5462 218.355 89.2656 218.098 98.3477L219.098 98.376L220.098 98.4043C220.353 89.3957 221.246 77.7338 222.78 63.4105L221.786 63.304ZM277.611 138.696L276.884 139.383L276.884 139.383L277.611 138.696ZM281.835 108.488L280.892 108.156L280.89 108.162L281.835 108.488ZM295.915 71.624L294.991 71.2426L294.991 71.2426L295.915 71.624ZM305.259 51.528L305.966 52.2351L306.259 51.9422V51.528H305.259ZM305.259 51.4V50.4H304.259V51.4H305.259ZM317.931 51.4L318.922 51.5339L319.075 50.4H317.931V51.4ZM320.875 88.776L321.861 88.6116L321.853 88.5609L321.839 88.5113L320.875 88.776ZM320.107 90.056L319.611 89.1878L319.611 89.1878L320.107 90.056ZM314.731 89.8L314.158 90.6192L314.203 90.6512L314.252 90.6779L314.731 89.8ZM312.939 87.24L311.979 87.52L311.981 87.5271L311.983 87.5341L312.939 87.24ZM310.251 78.024L309.291 78.3028L309.291 78.304L310.251 78.024ZM307.051 67.528L306.107 67.8583L306.107 67.8584L307.051 67.528ZM305.387 64.84L305.551 63.8536L305.338 63.8181L305.129 63.8738L305.387 64.84ZM298.731 77.512L297.799 77.1491L297.797 77.1544L298.731 77.512ZM290.155 103.624L289.192 103.353L289.19 103.361L290.155 103.624ZM286.699 127.432L285.763 127.783L285.781 127.832L285.805 127.879L286.699 127.432ZM288.875 128.84L288.65 129.814L288.65 129.814L288.875 128.84ZM300.267 127.432L301 128.112L301 128.112L300.267 127.432ZM302.315 122.824L301.324 122.689L301.324 122.689L302.315 122.824ZM302.699 115.272L301.699 115.255L301.699 115.263V115.272H302.699ZM303.979 103.112L304.951 103.348L304.952 103.342L303.979 103.112ZM310.123 94.792L309.563 93.9631L309.554 93.9698L310.123 94.792ZM329.195 96.328L329.482 97.2858L329.482 97.2858L329.195 96.328ZM322.155 96.712V95.712H320.945L321.173 96.9001L322.155 96.712ZM324.331 105.8L325.297 105.54L325.289 105.511L325.28 105.484L324.331 105.8ZM337.771 141V142H339.519L338.633 140.493L337.771 141ZM321.387 141L320.39 141.079L320.463 142H321.387V141ZM319.723 121.8L320.717 121.69L320.717 121.69L319.723 121.8ZM317.547 108.872L316.564 109.058L316.566 109.068L317.547 108.872ZM315.371 97.352L316.354 97.1664L316.168 96.1823L315.184 96.3697L315.371 97.352ZM307.819 101.192L307.028 100.581L307.024 100.586L307.819 101.192ZM306.539 116.424L307.533 116.314L307.532 116.304L307.531 116.295L306.539 116.424ZM304.619 137.544L303.833 136.926L303.83 136.93L304.619 137.544ZM283.243 141V140C281.186 140 279.582 139.326 278.338 138.009L277.611 138.696L276.884 139.383C278.542 141.138 280.692 142 283.243 142V141ZM277.611 138.696L278.338 138.009C277.119 136.719 276.435 134.783 276.435 132.04H275.435H274.435C274.435 135.1 275.201 137.601 276.884 139.383L277.611 138.696ZM275.435 132.04H276.435C276.435 130.524 276.933 127.846 278 123.918C279.058 120.023 280.651 114.991 282.78 108.814L281.835 108.488L280.89 108.162C278.753 114.359 277.145 119.438 276.07 123.394C275.004 127.317 274.435 130.228 274.435 132.04H275.435ZM281.835 108.488L282.778 108.82C287.124 96.4633 291.811 84.1918 296.839 72.0054L295.915 71.624L294.991 71.2426C289.949 83.4615 285.25 95.7661 280.892 108.156L281.835 108.488ZM295.915 71.624L296.839 72.0054C299.355 65.9089 301.386 61.1992 302.934 57.8696C303.708 56.2038 304.357 54.8949 304.881 53.9352C305.425 52.9378 305.783 52.4183 305.966 52.2351L305.259 51.528L304.552 50.8209C304.138 51.235 303.658 52.0009 303.125 52.9768C302.572 53.9904 301.903 55.3429 301.12 57.0264C299.554 60.3954 297.51 65.1365 294.991 71.2426L295.915 71.624ZM305.259 51.528H306.259V51.4H305.259H304.259V51.528H305.259ZM305.259 51.4V52.4H317.931V51.4V50.4H305.259V51.4ZM317.931 51.4L316.94 51.2661C316.506 54.4812 316.291 58.3258 316.291 62.792H317.291H318.291C318.291 58.3835 318.503 54.6334 318.922 51.5339L317.931 51.4ZM317.291 62.792H316.291C316.291 71.5042 317.499 80.2545 319.911 89.0407L320.875 88.776L321.839 88.5113C319.473 79.8894 318.291 71.3171 318.291 62.792H317.291ZM320.875 88.776L319.889 88.9404C319.893 88.9647 319.89 88.9708 319.891 88.9651C319.892 88.9588 319.894 88.9577 319.89 88.9655C319.877 88.9863 319.815 89.0711 319.611 89.1878L320.107 90.056L320.603 90.9242C320.996 90.6995 321.361 90.4003 321.604 89.9945C321.86 89.568 321.941 89.091 321.861 88.6116L320.875 88.776ZM320.107 90.056L319.611 89.1878C319.21 89.4169 318.628 89.568 317.803 89.568V90.568V91.568C318.855 91.568 319.81 91.3777 320.603 90.9242L320.107 90.056ZM317.803 90.568V89.568C316.854 89.568 315.996 89.3509 315.21 88.9221L314.731 89.8L314.252 90.6779C315.343 91.2731 316.533 91.568 317.803 91.568V90.568ZM314.731 89.8L315.304 88.9808C314.654 88.5257 314.179 87.8682 313.895 86.9459L312.939 87.24L311.983 87.5341C312.382 88.8305 313.101 89.8797 314.158 90.6192L314.731 89.8ZM312.939 87.24L313.899 86.96L311.211 77.744L310.251 78.024L309.291 78.304L311.979 87.52L312.939 87.24ZM310.251 78.024L311.211 77.7452C309.677 72.4592 308.603 68.9342 307.995 67.1976L307.051 67.528L306.107 67.8584C306.694 69.5351 307.753 73.0075 309.291 78.3028L310.251 78.024ZM307.051 67.528L307.995 67.1977C307.687 66.317 307.37 65.5879 307.037 65.0496C306.87 64.78 306.679 64.5254 306.456 64.3201C306.234 64.116 305.933 63.9172 305.551 63.8536L305.387 64.84L305.223 65.8264C305.097 65.8055 305.057 65.7506 305.102 65.7919C305.145 65.832 305.226 65.924 305.337 66.1024C305.558 66.4601 305.818 67.0323 306.107 67.8583L307.051 67.528ZM305.387 64.84L305.129 63.8738C304.767 63.9704 304.459 64.1772 304.208 64.3941C303.951 64.617 303.701 64.8977 303.457 65.2157C302.97 65.8511 302.444 66.7209 301.878 67.799C300.742 69.9607 299.382 73.0842 297.799 77.1491L298.731 77.512L299.663 77.8749C301.237 73.8331 302.565 70.7913 303.648 68.729C304.191 67.6951 304.657 66.9382 305.045 66.4323C305.238 66.1796 305.396 66.011 305.518 65.9059C305.646 65.7948 305.687 65.7949 305.645 65.8062L305.387 64.84ZM298.731 77.512L297.797 77.1544C294.713 85.2075 291.845 93.9407 289.192 103.353L290.155 103.624L291.118 103.895C293.756 94.534 296.605 85.8591 299.665 77.8696L298.731 77.512ZM290.155 103.624L289.19 103.361C286.631 112.746 285.315 119.561 285.315 123.72H286.315H287.315C287.315 119.858 288.559 113.275 291.12 103.887L290.155 103.624ZM286.315 123.72H285.315C285.315 125.507 285.436 126.912 285.763 127.783L286.699 127.432L287.635 127.081C287.45 126.587 287.315 125.517 287.315 123.72H286.315ZM286.699 127.432L285.805 127.879C286.334 128.939 287.396 129.525 288.65 129.814L288.875 128.84L289.1 127.866C288.135 127.643 287.746 127.291 287.593 126.985L286.699 127.432ZM288.875 128.84L288.65 129.814C289.885 130.099 292.04 130.224 295.019 130.224V129.224V128.224C292.024 128.224 290.084 128.093 289.1 127.866L288.875 128.84ZM295.019 129.224V130.224C297.556 130.224 299.628 129.59 301 128.112L300.267 127.432L299.534 126.752C298.688 127.663 297.261 128.224 295.019 128.224V129.224ZM300.267 127.432L301 128.112C302.271 126.744 303.027 125.006 303.306 122.959L302.315 122.824L301.324 122.689C301.091 124.396 300.482 125.731 299.534 126.752L300.267 127.432ZM302.315 122.824L303.306 122.959C303.571 121.017 303.699 118.449 303.699 115.272H302.699H301.699C301.699 118.41 301.571 120.876 301.324 122.689L302.315 122.824ZM302.699 115.272L303.699 115.289C303.784 110.38 304.207 106.407 304.951 103.348L303.979 103.112L303.007 102.876C302.215 106.132 301.785 110.266 301.699 115.255L302.699 115.272ZM303.979 103.112L304.952 103.342C305.652 100.389 307.522 97.8093 310.692 95.6142L310.123 94.792L309.554 93.9698C306.068 96.3827 303.842 99.3494 303.006 102.882L303.979 103.112ZM310.123 94.792L310.682 95.6208C313.85 93.483 318.856 92.336 325.867 92.336V91.336V90.336C318.712 90.336 313.223 91.493 309.564 93.9631L310.123 94.792ZM325.867 91.336V92.336C327.282 92.336 328.157 92.6439 328.67 93.0858C329.155 93.503 329.475 94.1777 329.475 95.304H330.475H331.475C331.475 93.7849 331.027 92.4757 329.976 91.5702C328.953 90.6894 327.524 90.336 325.867 90.336V91.336ZM330.475 95.304H329.475C329.475 95.2356 329.494 95.1703 329.521 95.1224C329.544 95.0806 329.559 95.0759 329.53 95.0991C329.46 95.155 329.279 95.2587 328.908 95.3702L329.195 96.328L329.482 97.2858C329.964 97.1413 330.423 96.9463 330.78 96.6609C331.158 96.3583 331.475 95.9031 331.475 95.304H330.475ZM329.195 96.328L328.908 95.3702C328.218 95.5771 326.617 95.712 323.947 95.712V96.712V97.712C326.568 97.712 328.465 97.5909 329.482 97.2858L329.195 96.328ZM323.947 96.712V95.712H322.155V96.712V97.712H323.947V96.712ZM322.155 96.712L321.173 96.9001C321.943 100.923 322.678 104.004 323.382 106.116L324.331 105.8L325.28 105.484C324.618 103.5 323.903 100.522 323.137 96.5239L322.155 96.712ZM324.331 105.8L323.365 106.06C327.472 121.289 331.98 133.119 336.909 141.507L337.771 141L338.633 140.493C333.834 132.326 329.382 120.69 325.297 105.54L324.331 105.8ZM337.771 141V140H321.387V141V142H337.771V141ZM321.387 141L322.384 140.921C321.616 131.197 321.06 124.78 320.717 121.69L319.723 121.8L318.729 121.91C319.068 124.964 319.622 131.347 320.39 141.079L321.387 141ZM319.723 121.8L320.717 121.69C320.371 118.574 319.639 114.232 318.528 108.676L317.547 108.872L316.566 109.068C317.674 114.606 318.393 118.882 318.729 121.91L319.723 121.8ZM317.547 108.872L318.53 108.686L316.354 97.1664L315.371 97.352L314.388 97.5376L316.564 109.058L317.547 108.872ZM315.371 97.352L315.184 96.3697C311.484 97.0744 308.69 98.4292 307.028 100.581L307.819 101.192L308.61 101.803C309.849 100.2 312.09 98.9949 315.558 98.3343L315.371 97.352ZM307.819 101.192L307.024 100.586C305.488 102.601 304.771 105.225 304.771 108.36H305.771H306.771C306.771 105.521 307.419 103.367 308.614 101.798L307.819 101.192ZM305.771 108.36H304.771C304.771 109.885 305.036 112.634 305.547 116.553L306.539 116.424L307.531 116.295C307.018 112.363 306.771 109.737 306.771 108.36H305.771ZM306.539 116.424L305.545 116.534C306.143 121.913 306.435 125.617 306.435 127.688H307.435H308.435C308.435 125.493 308.13 121.687 307.533 116.314L306.539 116.424ZM307.435 127.688H306.435C306.435 131.728 305.528 134.769 303.833 136.926L304.619 137.544L305.405 138.162C307.465 135.54 308.435 132.01 308.435 127.688H307.435ZM304.619 137.544L303.83 136.93C302.266 138.941 299.942 140 296.683 140V141V142C300.422 142 303.388 140.755 305.408 138.158L304.619 137.544ZM296.683 141V140H283.243V141V142H296.683V141Z" fill="#302E4F" mask="url(#path-1-outside-1_47_77)"/>
<path d="M375.929 86.0778L377.179 86.1038L374.78 85.5854L375.929 86.0778ZM365.729 140.489V139.239C365.701 139.239 365.672 139.24 365.643 139.242L365.729 140.489ZM412.929 140.489V141.739C413.522 141.739 414.034 141.322 414.153 140.741C414.273 140.159 413.967 139.574 413.422 139.34L412.929 140.489ZM391.328 130.332L390.697 131.411L390.697 131.411L391.328 130.332ZM412.929 130.332L413.182 131.556C413.732 131.442 414.139 130.975 414.176 130.414C414.213 129.853 413.87 129.336 413.339 129.151L412.929 130.332ZM396.968 133.631L396.337 134.71L396.404 134.749L396.475 134.779L396.968 133.631ZM387.537 94.0581L388.421 93.1742L388.421 93.1742L387.537 94.0581ZM404.18 96.96L405.298 96.4013L405.286 96.3783L405.274 96.3557L404.18 96.96ZM404.223 120.901L403.037 121.296C403.229 121.871 403.805 122.225 404.405 122.138C405.004 122.05 405.454 121.544 405.472 120.939L404.223 120.901ZM410.891 115.204L410.01 116.09C410.424 116.502 411.068 116.573 411.561 116.26C412.054 115.947 412.265 115.335 412.069 114.785L410.891 115.204ZM404.905 98.4109L406.082 97.9912L406.057 97.9199L406.023 97.8523L404.905 98.4109ZM351.825 128.881L350.716 129.457L350.716 129.457L351.825 128.881ZM360.694 121.626C359.522 121.193 359.522 121.193 359.522 121.193C359.522 121.193 359.522 121.193 359.522 121.193C359.522 121.194 359.521 121.194 359.521 121.194C359.521 121.195 359.521 121.196 359.52 121.197C359.519 121.2 359.518 121.204 359.516 121.209C359.512 121.219 359.507 121.234 359.5 121.253C359.486 121.291 359.465 121.347 359.439 121.419C359.387 121.563 359.312 121.771 359.221 122.027C359.039 122.538 358.793 123.243 358.535 124.021C358.03 125.543 357.442 127.448 357.241 128.68L358.474 128.881L359.708 129.082C359.872 128.077 360.394 126.355 360.908 124.809C361.159 124.052 361.399 123.363 361.577 122.864C361.665 122.614 361.738 122.412 361.789 122.273C361.814 122.203 361.834 122.15 361.847 122.113C361.854 122.095 361.859 122.082 361.862 122.073C361.864 122.068 361.865 122.065 361.866 122.062C361.866 122.061 361.866 122.061 361.867 122.06C361.867 122.06 361.867 122.06 361.867 122.06C361.867 122.06 361.867 122.06 361.867 122.06C361.867 122.06 361.867 122.06 360.694 121.626ZM358.474 128.881L357.241 128.68C357.065 129.754 356.895 130.424 356.779 130.807C356.721 130.998 356.677 131.115 356.653 131.174C356.641 131.204 356.634 131.218 356.633 131.22C356.633 131.221 356.634 131.218 356.637 131.213C356.638 131.21 356.64 131.207 356.642 131.202C356.643 131.2 356.644 131.198 356.646 131.196C356.646 131.194 356.647 131.193 356.648 131.192C356.648 131.191 356.648 131.19 356.649 131.19C356.649 131.189 356.649 131.189 356.649 131.189C356.65 131.188 356.65 131.188 357.749 131.783C358.848 132.378 358.848 132.378 358.849 132.377C358.849 132.377 358.849 132.377 358.849 132.376C358.85 132.375 358.85 132.375 358.85 132.374C358.851 132.372 358.852 132.371 358.853 132.369C358.855 132.366 358.856 132.363 358.858 132.36C358.862 132.353 358.866 132.345 358.87 132.337C358.878 132.321 358.887 132.302 358.897 132.28C358.918 132.237 358.942 132.182 358.969 132.114C359.024 131.978 359.093 131.79 359.171 131.535C359.326 131.026 359.518 130.245 359.708 129.082L358.474 128.881ZM357.749 131.783C356.509 131.623 356.509 131.623 356.509 131.623C356.509 131.623 356.509 131.623 356.509 131.624C356.509 131.624 356.509 131.624 356.509 131.625C356.509 131.626 356.509 131.628 356.508 131.629C356.508 131.633 356.507 131.638 356.507 131.644C356.505 131.657 356.503 131.674 356.5 131.696C356.495 131.74 356.488 131.804 356.479 131.885C356.462 132.046 356.439 132.275 356.416 132.555C356.371 133.114 356.326 133.883 356.328 134.718C356.329 135.548 356.377 136.475 356.529 137.339C356.676 138.173 356.943 139.097 357.484 139.8L358.474 139.038L359.465 138.276C359.294 138.053 359.114 137.607 358.991 136.907C358.874 136.237 358.829 135.466 358.828 134.713C358.826 133.966 358.867 133.269 358.908 132.757C358.929 132.502 358.949 132.294 358.965 132.153C358.972 132.082 358.978 132.028 358.983 131.992C358.985 131.974 358.986 131.961 358.987 131.953C358.988 131.949 358.988 131.946 358.989 131.944C358.989 131.943 358.989 131.943 358.989 131.943C358.989 131.943 358.989 131.943 358.989 131.943C358.989 131.943 358.989 131.943 358.989 131.943C358.989 131.943 358.989 131.943 357.749 131.783ZM358.474 139.038L357.484 139.8C358.083 140.579 359.026 140.997 359.851 141.244C360.716 141.501 361.675 141.635 362.536 141.704C363.405 141.773 364.22 141.781 364.815 141.772C365.114 141.768 365.359 141.759 365.532 141.751C365.619 141.747 365.688 141.743 365.735 141.741C365.759 141.739 365.778 141.738 365.792 141.737C365.798 141.737 365.804 141.736 365.807 141.736C365.809 141.736 365.811 141.736 365.812 141.736C365.813 141.736 365.813 141.736 365.814 141.736C365.814 141.736 365.814 141.736 365.814 141.736C365.815 141.736 365.815 141.736 365.729 140.489C365.643 139.242 365.644 139.242 365.644 139.242C365.644 139.242 365.644 139.242 365.644 139.242C365.644 139.242 365.644 139.242 365.644 139.242C365.644 139.242 365.643 139.242 365.643 139.242C365.641 139.242 365.638 139.242 365.633 139.242C365.625 139.243 365.61 139.244 365.591 139.245C365.553 139.247 365.495 139.25 365.419 139.254C365.268 139.26 365.047 139.268 364.777 139.273C364.234 139.281 363.502 139.273 362.736 139.212C361.961 139.15 361.196 139.036 360.566 138.848C359.898 138.649 359.578 138.423 359.465 138.276L358.474 139.038ZM365.729 140.489V141.739H412.929V140.489V139.239H365.729V140.489ZM375.204 120.901L376.454 120.927L377.179 86.1038L375.929 86.0778L374.68 86.0518L373.954 120.875L375.204 120.901ZM375.929 86.0778L374.78 85.5854L359.856 120.408L361.005 120.901L362.154 121.393L377.078 86.5702L375.929 86.0778ZM361.005 120.901L359.856 120.408L359.545 121.134L360.694 121.626L361.843 122.119L362.154 121.393L361.005 120.901ZM375.204 120.901V119.651H361.005V120.901V122.151H375.204V120.901ZM391.328 130.332L391.959 129.253L375.835 119.822L375.204 120.901L374.573 121.98L390.697 131.411L391.328 130.332ZM391.328 130.332L392.282 131.14L397.197 125.336L396.243 124.528L395.289 123.72L390.374 129.524L391.328 130.332ZM396.243 124.528L395.832 125.709L412.518 131.513L412.929 130.332L413.339 129.151L396.653 123.348L396.243 124.528ZM412.929 140.489L413.422 139.34L397.462 132.482L396.968 133.631L396.475 134.779L412.435 141.637L412.929 140.489ZM396.968 133.631L397.599 132.552L391.959 129.253L391.328 130.332L390.697 131.411L396.337 134.71L396.968 133.631ZM412.929 130.332L412.676 129.108L396.715 132.407L396.968 133.631L397.221 134.855L413.182 131.556L412.929 130.332ZM396.243 124.528L397.478 124.718L400.38 105.856L399.145 105.666L397.909 105.476L395.007 124.338L396.243 124.528ZM399.145 105.666L400.029 104.782L388.421 93.1742L387.537 94.0581L386.653 94.9419L398.261 106.55L399.145 105.666ZM387.537 94.0581L388.421 93.1742L387.695 92.4487L386.812 93.3326L385.928 94.2165L386.653 94.9419L387.537 94.0581ZM386.812 93.3326L385.928 94.2165L398.261 106.55L399.145 105.666L400.029 104.782L387.695 92.4487L386.812 93.3326ZM399.145 105.666L400.227 106.292L405.262 97.5858L404.18 96.96L403.098 96.3342L398.063 105.04L399.145 105.666ZM404.18 96.96L405.274 96.3557L398.062 83.2971L396.968 83.9014L395.874 84.5056L403.085 97.5642L404.18 96.96ZM404.18 96.96L404.962 95.9854L394.124 87.2797L393.341 88.2542L392.558 89.2288L403.397 97.9345L404.18 96.96ZM404.223 120.901L405.409 120.505L400.331 105.27L399.145 105.666L397.959 106.061L403.037 121.296L404.223 120.901ZM404.586 108.93L403.336 108.893L402.974 120.863L404.223 120.901L405.472 120.939L405.835 108.968L404.586 108.93ZM404.586 108.93L403.704 109.816L410.01 116.09L410.891 115.204L411.773 114.318L405.467 108.044L404.586 108.93ZM404.18 96.96L403.061 97.5186L403.786 98.9696L404.905 98.4109L406.023 97.8523L405.298 96.4013L404.18 96.96ZM404.905 98.4109L403.655 98.3731L403.336 108.893L404.586 108.93L405.835 108.968L406.154 98.4488L404.905 98.4109ZM410.891 115.204L412.069 114.785L406.082 97.9912L404.905 98.4109L403.727 98.8307L409.714 115.624L410.891 115.204ZM360.694 121.626C361.471 120.647 361.471 120.646 361.47 120.646C361.47 120.646 361.47 120.646 361.469 120.645C361.469 120.645 361.468 120.644 361.467 120.644C361.466 120.643 361.464 120.641 361.462 120.64C361.458 120.637 361.454 120.633 361.448 120.629C361.436 120.62 361.421 120.608 361.403 120.594C361.365 120.566 361.313 120.528 361.248 120.482C361.118 120.389 360.934 120.264 360.704 120.124C360.249 119.846 359.598 119.496 358.828 119.224C357.307 118.689 355.097 118.396 353.109 119.905L353.865 120.901L354.621 121.896C355.655 121.112 356.859 121.182 357.998 121.583C358.557 121.779 359.047 122.041 359.4 122.257C359.575 122.364 359.711 122.457 359.801 122.52C359.846 122.552 359.879 122.577 359.899 122.592C359.909 122.599 359.915 122.604 359.919 122.607C359.92 122.608 359.921 122.608 359.921 122.608C359.921 122.608 359.92 122.608 359.92 122.607C359.92 122.607 359.919 122.607 359.919 122.607C359.919 122.607 359.918 122.606 359.918 122.606C359.918 122.606 359.918 122.606 360.694 121.626ZM357.749 131.783C357.854 130.537 357.854 130.537 357.854 130.537C357.854 130.537 357.854 130.537 357.855 130.537C357.855 130.537 357.855 130.537 357.855 130.537C357.855 130.537 357.856 130.537 357.855 130.537C357.855 130.537 357.853 130.537 357.851 130.537C357.845 130.537 357.836 130.536 357.823 130.534C357.796 130.532 357.753 130.527 357.697 130.52C357.585 130.507 357.418 130.484 357.213 130.45C356.798 130.381 356.239 130.266 355.649 130.082C354.384 129.687 353.341 129.088 352.935 128.305L351.825 128.881L350.716 129.457C351.615 131.189 353.534 132.041 354.904 132.468C355.632 132.695 356.309 132.834 356.801 132.916C357.049 132.957 357.253 132.985 357.399 133.002C357.471 133.011 357.53 133.017 357.571 133.022C357.592 133.024 357.609 133.025 357.621 133.026C357.627 133.027 357.632 133.027 357.636 133.028C357.638 133.028 357.64 133.028 357.641 133.028C357.642 133.028 357.642 133.028 357.643 133.028C357.643 133.028 357.644 133.028 357.644 133.029C357.644 133.029 357.645 133.029 357.749 131.783ZM351.825 128.881L352.935 128.305C352.273 127.031 352.118 125.919 352.354 124.94C352.592 123.955 353.269 122.922 354.621 121.896L353.865 120.901L353.109 119.905C351.439 121.173 350.333 122.658 349.924 124.354C349.513 126.056 349.849 127.788 350.716 129.457L351.825 128.881Z" fill="#302E4F"/>
<path d="M400.596 80.2739L401.458 81.1791C401.784 80.8688 401.917 80.4073 401.808 79.9707L400.596 80.2739ZM385.361 94.7835L384.499 95.6887C384.981 96.1484 385.74 96.1484 386.223 95.6887L385.361 94.7835ZM370.126 80.2739L368.913 79.9707C368.804 80.4073 368.938 80.8688 369.263 81.1791L370.126 80.2739ZM396.243 52.7057L397.491 52.6364L397.479 52.4199L397.395 52.2201L396.243 52.7057ZM392.572 44L393.724 43.5143C393.534 43.0638 393.099 42.7654 392.61 42.7506C392.121 42.7358 391.669 43.0073 391.452 43.4455L392.572 44ZM388.262 52.7057L387.142 52.1512L387.075 52.2868L387.042 52.4346L388.262 52.7057ZM383.184 53.4312L384.415 53.214C384.31 52.6167 383.791 52.1812 383.184 52.1812V53.4312ZM373.753 53.4312V52.1812C373.269 52.1812 372.828 52.4609 372.622 52.899L373.753 53.4312ZM367.949 65.7643L366.818 65.2321C366.57 65.7594 366.719 66.3883 367.178 66.7479C367.636 67.1076 368.283 67.1026 368.736 66.7359L367.949 65.7643ZM396.968 65.7643L395.756 66.0675L399.383 80.5771L400.596 80.2739L401.808 79.9707L398.181 65.4612L396.968 65.7643ZM400.596 80.2739L399.734 79.3687L384.499 93.8783L385.361 94.7835L386.223 95.6887L401.458 81.1791L400.596 80.2739ZM385.361 94.7835L386.223 93.8783L370.988 79.3687L370.126 80.2739L369.263 81.1791L384.499 95.6887L385.361 94.7835ZM370.126 80.2739L371.338 80.5771L374.966 66.0675L373.753 65.7643L372.54 65.4612L368.913 79.9707L370.126 80.2739ZM370.126 80.2739L369.681 81.442L384.916 87.2459L385.361 86.0777L385.806 84.9096L370.571 79.1058L370.126 80.2739ZM385.361 86.0777L385.806 87.2459L401.041 81.442L400.596 80.2739L400.151 79.1058L384.916 84.9096L385.361 86.0777ZM385.361 86.0777H384.111V94.7835H385.361H386.611V86.0777H385.361ZM396.968 65.7643L398.216 65.695L397.491 52.6364L396.243 52.7057L394.995 52.7751L395.72 65.8337L396.968 65.7643ZM396.243 52.7057L397.395 52.2201L393.724 43.5143L392.572 44L391.42 44.4857L395.091 53.1914L396.243 52.7057ZM392.572 44L391.452 43.4455L387.142 52.1512L388.262 52.7057L389.383 53.2603L393.692 44.5545L392.572 44ZM373.753 65.7643V67.0143H385.361V65.7643V64.5143H373.753V65.7643ZM385.361 65.7643V67.0143H396.968V65.7643V64.5143H385.361V65.7643ZM388.262 52.7057L387.042 52.4346L384.14 65.4932L385.361 65.7643L386.581 66.0355L389.483 52.9769L388.262 52.7057ZM385.361 65.7643L386.592 65.5471L384.415 53.214L383.184 53.4312L381.953 53.6484L384.13 65.9816L385.361 65.7643ZM383.184 53.4312V52.1812H373.753V53.4312V54.6812H383.184V53.4312ZM373.753 53.4312L372.622 52.899L366.818 65.2321L367.949 65.7643L369.08 66.2966L374.884 53.9635L373.753 53.4312ZM367.949 65.7643L368.736 66.7359L383.971 54.4028L383.184 53.4312L382.398 52.4597L367.163 64.7928L367.949 65.7643ZM373.753 61.4115H372.503V65.7643H373.753H375.003V61.4115H373.753Z" fill="#302E4F"/>
</svg>
