<svg width="35" height="35" viewBox="0 0 35 35" fill="none" xmlns="http://www.w3.org/2000/svg">
<circle cx="17.5" cy="17.5" r="17.5" fill="black"/>
<g clip-path="url(#clip0_47_7424)">
<path d="M12.1459 10.5338L17.5 9.97168L22.8541 10.534L27 16.0532L17.5 27.028L8 16.0532L12.1459 10.5338Z" fill="#FDB300"/>
<path d="M11.8482 16.0527L17.5 27.0276L8 16.0527H11.8482ZM23.1518 16.0527L17.5 27.0276L27 16.0527H23.1518Z" fill="#EA6C00"/>
<path d="M11.8477 16.0527H23.1512L17.4994 27.0276L11.8477 16.0527Z" fill="#FDAD00"/>
<path d="M17.4994 9.97168L12.1453 10.5338L11.8477 16.0532L17.4994 9.97168ZM17.4994 9.97168L22.8536 10.5338L23.1512 16.0532L17.4994 9.97168Z" fill="#FDD231"/>
<path d="M27.0004 16.0535L22.8545 10.5342L23.1521 16.0535H27.0004Z" fill="#FDAD00"/>
<path d="M17.4994 9.97168L11.8477 16.0532H23.1512L17.4994 9.97168Z" fill="#FEEEB7"/>
<path d="M8 16.0535L12.1459 10.5342L11.8482 16.0535H8Z" fill="#FDAD00"/>
</g>
<defs>
<clipPath id="clip0_47_7424">
<rect width="19" height="19" fill="white" transform="translate(8 9)"/>
</clipPath>
</defs>
</svg>
